# xmcd
#
# Track frame offsets: 
#        182
#        18197
#        39197
#        59937
#        88562
#        112717
#        129122
#        148412
#        176635
#        200337
#        219437
#        239582
#        261522
#        280505
#
# Disc length: 4001 seconds
#
# Revision: 9
# Processed by: cddbd v1.5.2PL0 Copyright (c) Steve Scherf et al.
# Submitted via: ExactAudioCopy v1.3
#
DISCID=c70f9f0e
DTITLE=Vanessa Williams - The Comfort Zone
DYEAR=1991
DGENRE=R&B
TTITLE0=The Comfort Zone
TTITLE1=Running Back To You
TTITLE2=Work To Do
TTITLE3=You Gotta Go
TTITLE4=Still In Love
TTITLE5=Save The Best For Last
TTITLE6=What Will I Tell My Heart
TTITLE7=Strangers Eyes
TTITLE8=2 Of A Kind
TTITLE9=Freedom Dance (Get Free!)
TTITLE10=Just For Tonight
TTITLE11=One Reason
TTITLE12=Better Off Now
TTITLE13=Goodbye
EXTD=CD US 1991 (Wing/Mercury 843 522-2) BMG D125066 YEAR: 1991
EXTT0=
EXTT1=
EXTT2=
EXTT3=
EXTT4=
EXTT5=
EXTT6=
EXTT7=
EXTT8=
EXTT9=
EXTT10=
EXTT11=
EXTT12=
EXTT13=
PLAYORDER=
